<svg version="1.2" xmlns="http://www.w3.org/2000/svg" viewBox="0 0 1440 718" width="1440" height="718"><defs><linearGradient id="P" gradientUnits="userSpaceOnUse"/><linearGradient id="g1" x2="1" href="#P" gradientTransform="matrix(-44.606,-40.544,40.544,-44.606,1019.476,614.414)"><stop stop-color="#fff" stop-opacity="0"/><stop offset="1" stop-color="#c9f0ff" stop-opacity="1"/></linearGradient><linearGradient id="g2" x2="1" href="#P" gradientTransform="matrix(62.174,68.514,-68.514,62.174,467.089,285.834)"><stop stop-color="#fff" stop-opacity="0"/><stop offset="1" stop-color="#def5fe" stop-opacity="1"/></linearGradient><linearGradient id="g3" x2="1" href="#P" gradientTransform="matrix(111.039,-90.48,77.87,95.565,1217.486,377.79)"><stop stop-color="#fff" stop-opacity="0"/><stop offset="1" stop-color="#c9f0ff" stop-opacity="1"/></linearGradient><linearGradient id="g4" x2="1" href="#P" gradientTransform="matrix(72.265,-50.181,42.485,61.182,765.48,227.66)"><stop stop-color="#fff" stop-opacity="0"/><stop offset="1" stop-color="#c9f0ff" stop-opacity="1"/></linearGradient><linearGradient id="g5" x2="1" href="#P" gradientTransform="matrix(600.701,456.951,-511.194,672.008,-86.83,-48.951)"><stop stop-color="#fff" stop-opacity="0"/><stop offset="1" stop-color="#c9f0ff" stop-opacity="1"/></linearGradient><linearGradient id="g6" x2="1" href="#P" gradientTransform="matrix(-857.541,609.041,-810.557,-1141.28,1582.542,-2)"><stop stop-color="#fff" stop-opacity="0"/><stop offset="1" stop-color="#c9f0ff" stop-opacity="1"/></linearGradient><linearGradient id="g7" x2="1" href="#P" gradientTransform="matrix(253.3,-26.348,11.242,108.075,410.302,626.164)"><stop stop-color="#fff" stop-opacity="0"/><stop offset="1" stop-color="#c9f0ff" stop-opacity="1"/></linearGradient></defs><style>.a{fill:url(#g1)}.b{fill:url(#g2)}.c{opacity:.5;fill:none;stroke:url(#g3);stroke-width:10}.d{opacity:.5;fill:none;stroke:url(#g4);stroke-width:10}.e{fill:url(#g5)}.f{fill:url(#g6)}.g{fill:url(#g7)}</style><path class="a" d="m977 549.1l22.6 22.6c1.2 1.2 1.2 3.1 0 4.3l-22.6 22.6c-1.2 1.2-3.1 1.2-4.3 0l-22.6-22.6c-1.2-1.2-1.2-3.1 0-4.3l22.6-22.6c1.2-1.2 3.1-1.2 4.3 0z"/><path class="b" d="m516.7 338.2l10.6 10.6c0.4 0.4 0.4 1.1 0 1.4l-10.6 10.7c-0.4 0.3-1 0.3-1.4 0l-10.6-10.7c-0.4-0.3-0.4-1 0-1.4l10.6-10.6c0.4-0.4 1-0.4 1.4 0z"/><path fill-rule="evenodd" class="c" d="m1337.7 273.7l-1.7 27.4q0 0.5-0.3 1-0.3 0.4-0.7 0.7-0.5 0.2-1 0.2-0.5 0-1-0.3l-21.2-12.2q-0.4-0.3-0.7-0.7-0.3-0.5-0.3-1 0-0.5 0.2-1 0.3-0.4 0.7-0.7l22.9-15.1q0.5-0.4 1-0.4 0.6 0 1.1 0.3 0.5 0.3 0.7 0.8 0.3 0.5 0.3 1z"/><path fill-rule="evenodd" class="d" d="m852.9 157.2l-2.5 41.1c-0.1 0.9-0.3 1.7-0.8 2.4-0.5 0.7-1.1 1.3-1.8 1.7-0.8 0.4-1.6 0.6-2.5 0.6-0.8 0-1.7-0.2-2.4-0.6l-31.9-18.5c-0.7-0.4-1.3-1-1.8-1.7-0.4-0.8-0.7-1.6-0.7-2.4 0-0.9 0.2-1.7 0.6-2.5 0.4-0.7 0.9-1.4 1.7-1.9l34.3-22.6c0.8-0.6 1.7-0.8 2.6-0.9 0.9 0 1.9 0.2 2.7 0.7 0.8 0.5 1.4 1.1 1.9 2 0.4 0.8 0.6 1.7 0.6 2.6z"/><path fill-rule="evenodd" class="e" d="m0 408q58.4-138.9 170.7-100c112.3 39 152.1 91.6 212.6 0 15.7-23.7 9.8-74.5-29.3-76.5-39.1-2-9.2-46.3 58.1-55 67.4-8.7-18-70.1-69.3-87.9-53.3-18.5 15.1-67.3 20.4-85.9q12.9-45.4-363.2 0z"/><path fill-rule="evenodd" class="f" d="m1440 718q-131.2-1.5-193.6-60.5c-62.3-58.9-61.7-186.4-194.6-179.4-132.8 7-274.8-21.5-224.4-101.8 50.4-80.3 168.1-70.3 196.3-201.2 28.1-130.9-202.3 27.2-240.3-59.9-14.9-33.9 20.4-38.5-34.3-76.7-18.1-12.7-26.9-31.1-23.3-38.3 1.7-3.4 7.9 1.6 14.4 0 20.4-5 63.7 0 107.6 0h592.2z"/><path fill-rule="evenodd" class="g" d="m520.4 592.2c8.7-1.8 11.4 7.8 27.3 7.8 15.8 0 29.9-9.1 49.6-1.1 19.6 8 35.5 32.2 15.4 27.6-11.9-2.8-26.6-11.2-46.8 4.8-20.3 16-32.4-14.5-47.5-9.9-15.2 4.7-6.8-27.3 2-29.2z"/></svg>